<?xml version="1.0" standalone="no"?>
<svg width="250" height="250" viewBox="0 0 250 250" xmlns="http://www.w3.org/2000/svg" xmlns:xlink="http://www.w3.org/1999/xlink">
        <defs>
          <clipPath id="main-mask-3207803">
            <rect x="0" y="0" width="250" height="250" rx="10"/>
          </clipPath>
          <clipPath id="avatar-mask-3207803">
            <circle cx="125" cy="60" r="28" fill="#000"/>
          </clipPath>


          <g id="qr-3207803">
  <svg version="1.1" viewBox="0 0 3267 3267" width="190px" height="190px" class="qr-code" xml:space="preserve" xmlns="http://www.w3.org/2000/svg" xmlns:xlink="http://www.w3.org/1999/xlink">
    <defs>
      <rect id="rect-3207803" width="100" height="100" fill="#161b33"/>
      <path id="empty-3207803" d="M0,28.6v42.9C0,87.3,12.8,100,28.6,100h42.9c15.9,0,28.6-12.8,28.6-28.6V28.6C100,12.7,87.2,0,71.4,0H28.6 C12.8,0,0,12.8,0,28.6z" fill="#161b33"/>
      <path id="b-3207803" d="M0,0 L66,0 C84.7776815,-3.44940413e-15 100,15.2223185 100,34 L100,66 C100,84.7776815 84.7776815,100 66,100 L0,100 L0,0 Z" transform="rotate(-90 50 50)" fill="#161b33"/>
      <path id="r-3207803" d="M0,0 L66,0 C84.7776815,-3.44940413e-15 100,15.2223185 100,34 L100,66 C100,84.7776815 84.7776815,100 66,100 L0,100 L0,0 Z" transform="rotate(-180 50 50)" fill="#161b33"/>
      <path id="l-3207803" d="M0,0 L66,0 C84.7776815,-3.44940413e-15 100,15.2223185 100,34 L100,66 C100,84.7776815 84.7776815,100 66,100 L0,100 L0,0 Z" fill="#161b33"/>
      <path id="t-3207803" d="M0,0 L66,0 C84.7776815,-3.44940413e-15 100,15.2223185 100,34 L100,66 C100,84.7776815 84.7776815,100 66,100 L0,100 L0,0 Z" transform="rotate(90 50 50)" fill="#161b33"/>
      <path id="l-3207803" d="M0,0 L100,0 L100,66 C100,84.7776815 84.7776815,100 66,100 L0,100 L0,0 Z" transform="rotate(-90 50 50)" fill="#161b33"/>
      <path id="lt-3207803" d="M0,0 L100,0 L100,66 C100,84.7776815 84.7776815,100 66,100 L0,100 L0,0 Z" fill="#161b33"/>
      <path id="lb-3207803" d="M0,0 L100,0 L100,66 C100,84.7776815 84.7776815,100 66,100 L0,100 L0,0 Z" transform="rotate(-90 50 50)" fill="#161b33"/>
      <path id="rb-3207803" d="M0,0 L100,0 L100,66 C100,84.7776815 84.7776815,100 66,100 L0,100 L0,0 Z" transform="rotate(-180 50 50)" fill="#161b33"/>
      <path id="rt-3207803" d="M0,0 L100,0 L100,66 C100,84.7776815 84.7776815,100 66,100 L0,100 L0,0 Z" transform="rotate(90 50 50)" fill="#161b33"/>
      <path id="n_lt-3207803" d="M30.5,2V0H0v30.5h2C2,14.7,14.8,2,30.5,2z" fill="#161b33"/>
      <path id="n_lb-3207803" d="M2,69.5H0V100h30.5v-2C14.7,98,2,85.2,2,69.5z" fill="#161b33"/>
      <path id="n_rt-3207803" d="M98,30.5h2V0H69.5v2C85.3,2,98,14.8,98,30.5z" fill="#161b33"/>
      <path id="n_rb-3207803" d="M69.5,98v2H100V69.5h-2C98,85.3,85.2,98,69.5,98z" fill="#161b33"/>
      <path id="point-3207803" fill="#161b33" d="M600.001786,457.329333 L600.001786,242.658167 C600.001786,147.372368 587.039517,124.122784 581.464617,118.535383 C575.877216,112.960483 552.627632,99.9982143 457.329333,99.9982143 L242.670667,99.9982143 C147.372368,99.9982143 124.122784,112.960483 118.547883,118.535383 C112.972983,124.122784 99.9982143,147.372368 99.9982143,242.658167 L99.9982143,457.329333 C99.9982143,552.627632 112.972983,575.877216 118.547883,581.464617 C124.122784,587.027017 147.372368,600.001786 242.670667,600.001786 L457.329333,600.001786 C552.627632,600.001786 575.877216,587.027017 581.464617,581.464617 C587.039517,575.877216 600.001786,552.627632 600.001786,457.329333 Z M457.329333,0 C653.338333,0 700,46.6616668 700,242.658167 C700,438.667167 700,261.332833 700,457.329333 C700,653.338333 653.338333,700 457.329333,700 C261.332833,700 438.667167,700 242.670667,700 C46.6616668,700 0,653.338333 0,457.329333 C0,261.332833 0,352.118712 0,242.658167 C0,46.6616668 46.6616668,0 242.670667,0 C438.667167,0 261.332833,0 457.329333,0 Z M395.996667,200 C480.004166,200 500,220.008332 500,303.990835 C500,387.998334 500,312.001666 500,395.996667 C500,479.991668 480.004166,500 395.996667,500 C312.001666,500 387.998334,500 304.003333,500 C220.008332,500 200,479.991668 200,395.996667 C200,312.001666 200,350.906061 200,303.990835 C200,220.008332 220.008332,200 304.003333,200 C387.998334,200 312.001666,200 395.996667,200 Z"/>
      <clipPath id="logo-mask-3207803">
        <rect x="0" y="0" width="750" height="750"/>
      </clipPath>
    </defs>



    <g transform="translate(0,0)">
      <g transform="translate(776,0)"><use xlink:href="#b-3207803"/></g>
<g transform="translate(873,0)"><use xlink:href="#n_rb-3207803"/></g>
<g transform="translate(970,0)"><use xlink:href="#b-3207803"/></g>
<g transform="translate(1261,0)"><use xlink:href="#rb-3207803"/></g>
<g transform="translate(1358,0)"><use xlink:href="#rect-3207803"/></g>
<g transform="translate(1455,0)"><use xlink:href="#l-3207803"/></g>
<g transform="translate(1649,0)"><use xlink:href="#r-3207803"/></g>
<g transform="translate(1746,0)"><use xlink:href="#rect-3207803"/></g>
<g transform="translate(1843,0)"><use xlink:href="#rect-3207803"/></g>
<g transform="translate(1940,0)"><use xlink:href="#rect-3207803"/></g>
<g transform="translate(2037,0)"><use xlink:href="#l-3207803"/></g>
<g transform="translate(2231,0)"><use xlink:href="#r-3207803"/></g>
<g transform="translate(2328,0)"><use xlink:href="#lb-3207803"/></g>
<g transform="translate(776,97)"><use xlink:href="#rect-3207803"/></g>
<g transform="translate(873,97)"><use xlink:href="#rect-3207803"/></g>
<g transform="translate(970,97)"><use xlink:href="#rect-3207803"/></g>
<g transform="translate(1067,97)"><use xlink:href="#lb-3207803"/></g>
<g transform="translate(1261,97)"><use xlink:href="#t-3207803"/></g>
<g transform="translate(1552,97)"><use xlink:href="#b-3207803"/></g>
<g transform="translate(1746,97)"><use xlink:href="#t-3207803"/></g>
<g transform="translate(2328,97)"><use xlink:href="#rect-3207803"/></g>
<g transform="translate(776,194)"><use xlink:href="#rt-3207803"/></g>
<g transform="translate(873,194)"><use xlink:href="#rect-3207803"/></g>
<g transform="translate(1067,194)"><use xlink:href="#rt-3207803"/></g>
<g transform="translate(1164,194)"><use xlink:href="#l-3207803"/></g>
<g transform="translate(1358,194)"><use xlink:href="#empty-3207803"/></g>
<g transform="translate(1552,194)"><use xlink:href="#rect-3207803"/></g>
<g transform="translate(1649,194)"><use xlink:href="#lb-3207803"/></g>
<g transform="translate(2037,194)"><use xlink:href="#r-3207803"/></g>
<g transform="translate(2134,194)"><use xlink:href="#rect-3207803"/></g>
<g transform="translate(2231,194)"><use xlink:href="#rect-3207803"/></g>
<g transform="translate(2328,194)"><use xlink:href="#rect-3207803"/></g>
<g transform="translate(873,291)"><use xlink:href="#rect-3207803"/></g>
<g transform="translate(1261,291)"><use xlink:href="#empty-3207803"/></g>
<g transform="translate(1552,291)"><use xlink:href="#rt-3207803"/></g>
<g transform="translate(1649,291)"><use xlink:href="#rect-3207803"/></g>
<g transform="translate(1746,291)"><use xlink:href="#l-3207803"/></g>
<g transform="translate(2134,291)"><use xlink:href="#rt-3207803"/></g>
<g transform="translate(2231,291)"><use xlink:href="#rect-3207803"/></g>
<g transform="translate(2328,291)"><use xlink:href="#lt-3207803"/></g>
<g transform="translate(776,388)"><use xlink:href="#n_rb-3207803"/></g>
<g transform="translate(873,388)"><use xlink:href="#rect-3207803"/></g>
<g transform="translate(970,388)"><use xlink:href="#lb-3207803"/></g>
<g transform="translate(1261,388)"><use xlink:href="#n_rb-3207803"/></g>
<g transform="translate(1358,388)"><use xlink:href="#rb-3207803"/></g>
<g transform="translate(1455,388)"><use xlink:href="#lb-3207803"/></g>
<g transform="translate(2231,388)"><use xlink:href="#t-3207803"/></g>
<g transform="translate(776,485)"><use xlink:href="#rb-3207803"/></g>
<g transform="translate(873,485)"><use xlink:href="#rect-3207803"/></g>
<g transform="translate(970,485)"><use xlink:href="#rect-3207803"/></g>
<g transform="translate(1067,485)"><use xlink:href="#rect-3207803"/></g>
<g transform="translate(1164,485)"><use xlink:href="#rect-3207803"/></g>
<g transform="translate(1261,485)"><use xlink:href="#rect-3207803"/></g>
<g transform="translate(1358,485)"><use xlink:href="#rect-3207803"/></g>
<g transform="translate(1455,485)"><use xlink:href="#rect-3207803"/></g>
<g transform="translate(1552,485)"><use xlink:href="#lb-3207803"/></g>
<g transform="translate(1843,485)"><use xlink:href="#empty-3207803"/></g>
<g transform="translate(2037,485)"><use xlink:href="#empty-3207803"/></g>
<g transform="translate(2328,485)"><use xlink:href="#b-3207803"/></g>
<g transform="translate(776,582)"><use xlink:href="#rect-3207803"/></g>
<g transform="translate(970,582)"><use xlink:href="#rect-3207803"/></g>
<g transform="translate(1164,582)"><use xlink:href="#rect-3207803"/></g>
<g transform="translate(1358,582)"><use xlink:href="#t-3207803"/></g>
<g transform="translate(1552,582)"><use xlink:href="#t-3207803"/></g>
<g transform="translate(1746,582)"><use xlink:href="#empty-3207803"/></g>
<g transform="translate(1940,582)"><use xlink:href="#empty-3207803"/></g>
<g transform="translate(2037,582)"><use xlink:href="#n_rb-3207803"/></g>
<g transform="translate(2134,582)"><use xlink:href="#b-3207803"/></g>
<g transform="translate(2231,582)"><use xlink:href="#n_rb-3207803"/></g>
<g transform="translate(2328,582)"><use xlink:href="#rect-3207803"/></g>
<g transform="translate(776,679)"><use xlink:href="#rect-3207803"/></g>
<g transform="translate(873,679)"><use xlink:href="#rect-3207803"/></g>
<g transform="translate(970,679)"><use xlink:href="#rect-3207803"/></g>
<g transform="translate(1164,679)"><use xlink:href="#rect-3207803"/></g>
<g transform="translate(1455,679)"><use xlink:href="#empty-3207803"/></g>
<g transform="translate(1746,679)"><use xlink:href="#n_rb-3207803"/></g>
<g transform="translate(1843,679)"><use xlink:href="#b-3207803"/></g>
<g transform="translate(2037,679)"><use xlink:href="#r-3207803"/></g>
<g transform="translate(2134,679)"><use xlink:href="#rect-3207803"/></g>
<g transform="translate(2231,679)"><use xlink:href="#rect-3207803"/></g>
<g transform="translate(2328,679)"><use xlink:href="#rect-3207803"/></g>
<g transform="translate(97,776)"><use xlink:href="#n_rb-3207803"/></g>
<g transform="translate(194,776)"><use xlink:href="#rb-3207803"/></g>
<g transform="translate(291,776)"><use xlink:href="#rect-3207803"/></g>
<g transform="translate(388,776)"><use xlink:href="#lb-3207803"/></g>
<g transform="translate(582,776)"><use xlink:href="#empty-3207803"/></g>
<g transform="translate(679,776)"><use xlink:href="#n_rb-3207803"/></g>
<g transform="translate(776,776)"><use xlink:href="#rect-3207803"/></g>
<g transform="translate(970,776)"><use xlink:href="#rect-3207803"/></g>
<g transform="translate(1164,776)"><use xlink:href="#rect-3207803"/></g>
<g transform="translate(1746,776)"><use xlink:href="#r-3207803"/></g>
<g transform="translate(1843,776)"><use xlink:href="#lt-3207803"/></g>
<g transform="translate(2134,776)"><use xlink:href="#rect-3207803"/></g>
<g transform="translate(2328,776)"><use xlink:href="#rt-3207803"/></g>
<g transform="translate(2425,776)"><use xlink:href="#rect-3207803"/></g>
<g transform="translate(2522,776)"><use xlink:href="#rect-3207803"/></g>
<g transform="translate(2619,776)"><use xlink:href="#l-3207803"/></g>
<g transform="translate(2910,776)"><use xlink:href="#r-3207803"/></g>
<g transform="translate(3007,776)"><use xlink:href="#rect-3207803"/></g>
<g transform="translate(3104,776)"><use xlink:href="#lb-3207803"/></g>
<g transform="translate(0,873)"><use xlink:href="#r-3207803"/></g>
<g transform="translate(97,873)"><use xlink:href="#rect-3207803"/></g>
<g transform="translate(194,873)"><use xlink:href="#rect-3207803"/></g>
<g transform="translate(291,873)"><use xlink:href="#rect-3207803"/></g>
<g transform="translate(388,873)"><use xlink:href="#lt-3207803"/></g>
<g transform="translate(582,873)"><use xlink:href="#n_rb-3207803"/></g>
<g transform="translate(679,873)"><use xlink:href="#rb-3207803"/></g>
<g transform="translate(776,873)"><use xlink:href="#rect-3207803"/></g>
<g transform="translate(873,873)"><use xlink:href="#rect-3207803"/></g>
<g transform="translate(970,873)"><use xlink:href="#rect-3207803"/></g>
<g transform="translate(1164,873)"><use xlink:href="#rt-3207803"/></g>
<g transform="translate(1261,873)"><use xlink:href="#l-3207803"/></g>
<g transform="translate(1552,873)"><use xlink:href="#r-3207803"/></g>
<g transform="translate(1649,873)"><use xlink:href="#l-3207803"/></g>
<g transform="translate(1940,873)"><use xlink:href="#empty-3207803"/></g>
<g transform="translate(2134,873)"><use xlink:href="#rect-3207803"/></g>
<g transform="translate(2231,873)"><use xlink:href="#l-3207803"/></g>
<g transform="translate(2425,873)"><use xlink:href="#rect-3207803"/></g>
<g transform="translate(2522,873)"><use xlink:href="#lt-3207803"/></g>
<g transform="translate(3104,873)"><use xlink:href="#t-3207803"/></g>
<g transform="translate(291,970)"><use xlink:href="#t-3207803"/></g>
<g transform="translate(485,970)"><use xlink:href="#r-3207803"/></g>
<g transform="translate(582,970)"><use xlink:href="#rect-3207803"/></g>
<g transform="translate(679,970)"><use xlink:href="#rect-3207803"/></g>
<g transform="translate(873,970)"><use xlink:href="#rect-3207803"/></g>
<g transform="translate(970,970)"><use xlink:href="#lt-3207803"/></g>
<g transform="translate(1358,970)"><use xlink:href="#r-3207803"/></g>
<g transform="translate(1455,970)"><use xlink:href="#l-3207803"/></g>
<g transform="translate(1649,970)"><use xlink:href="#n_rb-3207803"/></g>
<g transform="translate(1746,970)"><use xlink:href="#rb-3207803"/></g>
<g transform="translate(1843,970)"><use xlink:href="#l-3207803"/></g>
<g transform="translate(2037,970)"><use xlink:href="#n_rb-3207803"/></g>
<g transform="translate(2134,970)"><use xlink:href="#rect-3207803"/></g>
<g transform="translate(2328,970)"><use xlink:href="#r-3207803"/></g>
<g transform="translate(2425,970)"><use xlink:href="#rect-3207803"/></g>
<g transform="translate(2619,970)"><use xlink:href="#empty-3207803"/></g>
<g transform="translate(2813,970)"><use xlink:href="#rb-3207803"/></g>
<g transform="translate(2910,970)"><use xlink:href="#lb-3207803"/></g>
<g transform="translate(0,1067)"><use xlink:href="#b-3207803"/></g>
<g transform="translate(97,1067)"><use xlink:href="#n_rb-3207803"/></g>
<g transform="translate(194,1067)"><use xlink:href="#b-3207803"/></g>
<g transform="translate(679,1067)"><use xlink:href="#rt-3207803"/></g>
<g transform="translate(776,1067)"><use xlink:href="#rect-3207803"/></g>
<g transform="translate(873,1067)"><use xlink:href="#rect-3207803"/></g>
<g transform="translate(1067,1067)"><use xlink:href="#rb-3207803"/></g>
<g transform="translate(1164,1067)"><use xlink:href="#rect-3207803"/></g>
<g transform="translate(1261,1067)"><use xlink:href="#lb-3207803"/></g>
<g transform="translate(1649,1067)"><use xlink:href="#r-3207803"/></g>
<g transform="translate(1746,1067)"><use xlink:href="#lt-3207803"/></g>
<g transform="translate(2037,1067)"><use xlink:href="#r-3207803"/></g>
<g transform="translate(2134,1067)"><use xlink:href="#rect-3207803"/></g>
<g transform="translate(2231,1067)"><use xlink:href="#l-3207803"/></g>
<g transform="translate(2425,1067)"><use xlink:href="#t-3207803"/></g>
<g transform="translate(2813,1067)"><use xlink:href="#rt-3207803"/></g>
<g transform="translate(2910,1067)"><use xlink:href="#lt-3207803"/></g>
<g transform="translate(0,1164)"><use xlink:href="#rt-3207803"/></g>
<g transform="translate(97,1164)"><use xlink:href="#rect-3207803"/></g>
<g transform="translate(194,1164)"><use xlink:href="#lt-3207803"/></g>
<g transform="translate(388,1164)"><use xlink:href="#n_rb-3207803"/></g>
<g transform="translate(485,1164)"><use xlink:href="#rb-3207803"/></g>
<g transform="translate(582,1164)"><use xlink:href="#l-3207803"/></g>
<g transform="translate(873,1164)"><use xlink:href="#t-3207803"/></g>
<g transform="translate(1067,1164)"><use xlink:href="#t-3207803"/></g>
<g transform="translate(1261,1164)"><use xlink:href="#rt-3207803"/></g>
<g transform="translate(1358,1164)"><use xlink:href="#rect-3207803"/></g>
<g transform="translate(1455,1164)"><use xlink:href="#l-3207803"/></g>
<g transform="translate(1746,1164)"><use xlink:href="#n_rb-3207803"/></g>
<g transform="translate(1843,1164)"><use xlink:href="#rb-3207803"/></g>
<g transform="translate(1940,1164)"><use xlink:href="#l-3207803"/></g>
<g transform="translate(2134,1164)"><use xlink:href="#rect-3207803"/></g>
<g transform="translate(2328,1164)"><use xlink:href="#empty-3207803"/></g>
<g transform="translate(2619,1164)"><use xlink:href="#r-3207803"/></g>
<g transform="translate(2716,1164)"><use xlink:href="#l-3207803"/></g>
<g transform="translate(3007,1164)"><use xlink:href="#empty-3207803"/></g>
<g transform="translate(388,1261)"><use xlink:href="#r-3207803"/></g>
<g transform="translate(485,1261)"><use xlink:href="#rect-3207803"/></g>
<g transform="translate(776,1261)"><use xlink:href="#b-3207803"/></g>
<g transform="translate(970,1261)"><use xlink:href="#b-3207803"/></g>
<g transform="translate(1358,1261)"><use xlink:href="#t-3207803"/></g>
<g transform="translate(1746,1261)"><use xlink:href="#r-3207803"/></g>
<g transform="translate(1843,1261)"><use xlink:href="#rect-3207803"/></g>
<g transform="translate(2134,1261)"><use xlink:href="#rect-3207803"/></g>
<g transform="translate(2231,1261)"><use xlink:href="#l-3207803"/></g>
<g transform="translate(2425,1261)"><use xlink:href="#n_rb-3207803"/></g>
<g transform="translate(2522,1261)"><use xlink:href="#b-3207803"/></g>
<g transform="translate(2813,1261)"><use xlink:href="#n_rb-3207803"/></g>
<g transform="translate(2910,1261)"><use xlink:href="#b-3207803"/></g>
<g transform="translate(3104,1261)"><use xlink:href="#empty-3207803"/></g>
<g transform="translate(0,1358)"><use xlink:href="#rb-3207803"/></g>
<g transform="translate(97,1358)"><use xlink:href="#lb-3207803"/></g>
<g transform="translate(485,1358)"><use xlink:href="#rect-3207803"/></g>
<g transform="translate(582,1358)"><use xlink:href="#l-3207803"/></g>
<g transform="translate(776,1358)"><use xlink:href="#t-3207803"/></g>
<g transform="translate(970,1358)"><use xlink:href="#rect-3207803"/></g>
<g transform="translate(1455,1358)"><use xlink:href="#empty-3207803"/></g>
<g transform="translate(1843,1358)"><use xlink:href="#t-3207803"/></g>
<g transform="translate(2037,1358)"><use xlink:href="#n_rb-3207803"/></g>
<g transform="translate(2134,1358)"><use xlink:href="#rect-3207803"/></g>
<g transform="translate(2425,1358)"><use xlink:href="#rb-3207803"/></g>
<g transform="translate(2522,1358)"><use xlink:href="#rect-3207803"/></g>
<g transform="translate(2716,1358)"><use xlink:href="#n_rb-3207803"/></g>
<g transform="translate(2813,1358)"><use xlink:href="#rb-3207803"/></g>
<g transform="translate(2910,1358)"><use xlink:href="#rect-3207803"/></g>
<g transform="translate(3007,1358)"><use xlink:href="#l-3207803"/></g>
<g transform="translate(0,1455)"><use xlink:href="#rt-3207803"/></g>
<g transform="translate(97,1455)"><use xlink:href="#rect-3207803"/></g>
<g transform="translate(194,1455)"><use xlink:href="#rect-3207803"/></g>
<g transform="translate(291,1455)"><use xlink:href="#rect-3207803"/></g>
<g transform="translate(388,1455)"><use xlink:href="#rect-3207803"/></g>
<g transform="translate(485,1455)"><use xlink:href="#rect-3207803"/></g>
<g transform="translate(582,1455)"><use xlink:href="#n_rb-3207803"/></g>
<g transform="translate(679,1455)"><use xlink:href="#b-3207803"/></g>
<g transform="translate(873,1455)"><use xlink:href="#n_rb-3207803"/></g>
<g transform="translate(970,1455)"><use xlink:href="#rect-3207803"/></g>
<g transform="translate(1067,1455)"><use xlink:href="#n_rb-3207803"/></g>
<g transform="translate(1164,1455)"><use xlink:href="#rb-3207803"/></g>
<g transform="translate(1261,1455)"><use xlink:href="#lb-3207803"/></g>
<g transform="translate(1455,1455)"><use xlink:href="#n_rb-3207803"/></g>
<g transform="translate(1552,1455)"><use xlink:href="#b-3207803"/></g>
<g transform="translate(1649,1455)"><use xlink:href="#n_rb-3207803"/></g>
<g transform="translate(1746,1455)"><use xlink:href="#b-3207803"/></g>
<g transform="translate(1940,1455)"><use xlink:href="#r-3207803"/></g>
<g transform="translate(2037,1455)"><use xlink:href="#rect-3207803"/></g>
<g transform="translate(2134,1455)"><use xlink:href="#lt-3207803"/></g>
<g transform="translate(2425,1455)"><use xlink:href="#rect-3207803"/></g>
<g transform="translate(2522,1455)"><use xlink:href="#rect-3207803"/></g>
<g transform="translate(2619,1455)"><use xlink:href="#rect-3207803"/></g>
<g transform="translate(2716,1455)"><use xlink:href="#rect-3207803"/></g>
<g transform="translate(2813,1455)"><use xlink:href="#rect-3207803"/></g>
<g transform="translate(2910,1455)"><use xlink:href="#lt-3207803"/></g>
<g transform="translate(3104,1455)"><use xlink:href="#empty-3207803"/></g>
<g transform="translate(97,1552)"><use xlink:href="#t-3207803"/></g>
<g transform="translate(291,1552)"><use xlink:href="#rt-3207803"/></g>
<g transform="translate(388,1552)"><use xlink:href="#rect-3207803"/></g>
<g transform="translate(485,1552)"><use xlink:href="#rect-3207803"/></g>
<g transform="translate(582,1552)"><use xlink:href="#rect-3207803"/></g>
<g transform="translate(679,1552)"><use xlink:href="#lt-3207803"/></g>
<g transform="translate(873,1552)"><use xlink:href="#rb-3207803"/></g>
<g transform="translate(970,1552)"><use xlink:href="#rect-3207803"/></g>
<g transform="translate(1067,1552)"><use xlink:href="#rect-3207803"/></g>
<g transform="translate(1164,1552)"><use xlink:href="#rect-3207803"/></g>
<g transform="translate(1261,1552)"><use xlink:href="#rect-3207803"/></g>
<g transform="translate(1455,1552)"><use xlink:href="#r-3207803"/></g>
<g transform="translate(1552,1552)"><use xlink:href="#rect-3207803"/></g>
<g transform="translate(1649,1552)"><use xlink:href="#rect-3207803"/></g>
<g transform="translate(1746,1552)"><use xlink:href="#rect-3207803"/></g>
<g transform="translate(1843,1552)"><use xlink:href="#lb-3207803"/></g>
<g transform="translate(2425,1552)"><use xlink:href="#t-3207803"/></g>
<g transform="translate(2619,1552)"><use xlink:href="#rt-3207803"/></g>
<g transform="translate(2716,1552)"><use xlink:href="#rect-3207803"/></g>
<g transform="translate(2813,1552)"><use xlink:href="#lt-3207803"/></g>
<g transform="translate(776,1649)"><use xlink:href="#n_rb-3207803"/></g>
<g transform="translate(873,1649)"><use xlink:href="#rect-3207803"/></g>
<g transform="translate(1067,1649)"><use xlink:href="#rect-3207803"/></g>
<g transform="translate(1261,1649)"><use xlink:href="#rect-3207803"/></g>
<g transform="translate(1649,1649)"><use xlink:href="#rect-3207803"/></g>
<g transform="translate(1746,1649)"><use xlink:href="#rect-3207803"/></g>
<g transform="translate(1843,1649)"><use xlink:href="#rect-3207803"/></g>
<g transform="translate(2231,1649)"><use xlink:href="#r-3207803"/></g>
<g transform="translate(2328,1649)"><use xlink:href="#l-3207803"/></g>
<g transform="translate(2425,1649)"><use xlink:href="#n_rb-3207803"/></g>
<g transform="translate(2522,1649)"><use xlink:href="#b-3207803"/></g>
<g transform="translate(3104,1649)"><use xlink:href="#empty-3207803"/></g>
<g transform="translate(0,1746)"><use xlink:href="#r-3207803"/></g>
<g transform="translate(97,1746)"><use xlink:href="#l-3207803"/></g>
<g transform="translate(291,1746)"><use xlink:href="#rb-3207803"/></g>
<g transform="translate(388,1746)"><use xlink:href="#rect-3207803"/></g>
<g transform="translate(485,1746)"><use xlink:href="#rect-3207803"/></g>
<g transform="translate(582,1746)"><use xlink:href="#l-3207803"/></g>
<g transform="translate(776,1746)"><use xlink:href="#r-3207803"/></g>
<g transform="translate(873,1746)"><use xlink:href="#rect-3207803"/></g>
<g transform="translate(1067,1746)"><use xlink:href="#t-3207803"/></g>
<g transform="translate(1261,1746)"><use xlink:href="#rt-3207803"/></g>
<g transform="translate(1358,1746)"><use xlink:href="#l-3207803"/></g>
<g transform="translate(1552,1746)"><use xlink:href="#r-3207803"/></g>
<g transform="translate(1649,1746)"><use xlink:href="#lt-3207803"/></g>
<g transform="translate(1843,1746)"><use xlink:href="#rt-3207803"/></g>
<g transform="translate(1940,1746)"><use xlink:href="#l-3207803"/></g>
<g transform="translate(2037,1746)"><use xlink:href="#n_rb-3207803"/></g>
<g transform="translate(2134,1746)"><use xlink:href="#b-3207803"/></g>
<g transform="translate(2328,1746)"><use xlink:href="#n_rb-3207803"/></g>
<g transform="translate(2425,1746)"><use xlink:href="#rb-3207803"/></g>
<g transform="translate(2522,1746)"><use xlink:href="#rect-3207803"/></g>
<g transform="translate(2716,1746)"><use xlink:href="#empty-3207803"/></g>
<g transform="translate(2813,1746)"><use xlink:href="#n_rb-3207803"/></g>
<g transform="translate(2910,1746)"><use xlink:href="#rb-3207803"/></g>
<g transform="translate(3007,1746)"><use xlink:href="#lb-3207803"/></g>
<g transform="translate(291,1843)"><use xlink:href="#rect-3207803"/></g>
<g transform="translate(388,1843)"><use xlink:href="#rect-3207803"/></g>
<g transform="translate(485,1843)"><use xlink:href="#rect-3207803"/></g>
<g transform="translate(582,1843)"><use xlink:href="#n_rb-3207803"/></g>
<g transform="translate(679,1843)"><use xlink:href="#b-3207803"/></g>
<g transform="translate(873,1843)"><use xlink:href="#rt-3207803"/></g>
<g transform="translate(970,1843)"><use xlink:href="#lb-3207803"/></g>
<g transform="translate(1164,1843)"><use xlink:href="#b-3207803"/></g>
<g transform="translate(1455,1843)"><use xlink:href="#empty-3207803"/></g>
<g transform="translate(2037,1843)"><use xlink:href="#r-3207803"/></g>
<g transform="translate(2134,1843)"><use xlink:href="#rect-3207803"/></g>
<g transform="translate(2231,1843)"><use xlink:href="#rect-3207803"/></g>
<g transform="translate(2328,1843)"><use xlink:href="#rect-3207803"/></g>
<g transform="translate(2425,1843)"><use xlink:href="#rect-3207803"/></g>
<g transform="translate(2522,1843)"><use xlink:href="#rect-3207803"/></g>
<g transform="translate(2619,1843)"><use xlink:href="#lb-3207803"/></g>
<g transform="translate(2716,1843)"><use xlink:href="#n_rb-3207803"/></g>
<g transform="translate(2813,1843)"><use xlink:href="#rb-3207803"/></g>
<g transform="translate(2910,1843)"><use xlink:href="#rect-3207803"/></g>
<g transform="translate(3007,1843)"><use xlink:href="#rect-3207803"/></g>
<g transform="translate(194,1940)"><use xlink:href="#n_rb-3207803"/></g>
<g transform="translate(291,1940)"><use xlink:href="#rect-3207803"/></g>
<g transform="translate(485,1940)"><use xlink:href="#rect-3207803"/></g>
<g transform="translate(582,1940)"><use xlink:href="#rect-3207803"/></g>
<g transform="translate(679,1940)"><use xlink:href="#rect-3207803"/></g>
<g transform="translate(776,1940)"><use xlink:href="#l-3207803"/></g>
<g transform="translate(970,1940)"><use xlink:href="#rect-3207803"/></g>
<g transform="translate(1164,1940)"><use xlink:href="#rt-3207803"/></g>
<g transform="translate(1261,1940)"><use xlink:href="#rect-3207803"/></g>
<g transform="translate(1358,1940)"><use xlink:href="#l-3207803"/></g>
<g transform="translate(1552,1940)"><use xlink:href="#empty-3207803"/></g>
<g transform="translate(1746,1940)"><use xlink:href="#r-3207803"/></g>
<g transform="translate(1843,1940)"><use xlink:href="#lb-3207803"/></g>
<g transform="translate(2134,1940)"><use xlink:href="#t-3207803"/></g>
<g transform="translate(2328,1940)"><use xlink:href="#rt-3207803"/></g>
<g transform="translate(2425,1940)"><use xlink:href="#lt-3207803"/></g>
<g transform="translate(2619,1940)"><use xlink:href="#rt-3207803"/></g>
<g transform="translate(2716,1940)"><use xlink:href="#rect-3207803"/></g>
<g transform="translate(2813,1940)"><use xlink:href="#rect-3207803"/></g>
<g transform="translate(3007,1940)"><use xlink:href="#rt-3207803"/></g>
<g transform="translate(3104,1940)"><use xlink:href="#lb-3207803"/></g>
<g transform="translate(0,2037)"><use xlink:href="#rb-3207803"/></g>
<g transform="translate(97,2037)"><use xlink:href="#rect-3207803"/></g>
<g transform="translate(194,2037)"><use xlink:href="#rect-3207803"/></g>
<g transform="translate(291,2037)"><use xlink:href="#rect-3207803"/></g>
<g transform="translate(388,2037)"><use xlink:href="#rect-3207803"/></g>
<g transform="translate(485,2037)"><use xlink:href="#lt-3207803"/></g>
<g transform="translate(776,2037)"><use xlink:href="#n_rb-3207803"/></g>
<g transform="translate(873,2037)"><use xlink:href="#rb-3207803"/></g>
<g transform="translate(970,2037)"><use xlink:href="#rect-3207803"/></g>
<g transform="translate(1067,2037)"><use xlink:href="#l-3207803"/></g>
<g transform="translate(1649,2037)"><use xlink:href="#empty-3207803"/></g>
<g transform="translate(1843,2037)"><use xlink:href="#rect-3207803"/></g>
<g transform="translate(1940,2037)"><use xlink:href="#rect-3207803"/></g>
<g transform="translate(2037,2037)"><use xlink:href="#l-3207803"/></g>
<g transform="translate(2522,2037)"><use xlink:href="#empty-3207803"/></g>
<g transform="translate(2813,2037)"><use xlink:href="#t-3207803"/></g>
<g transform="translate(3104,2037)"><use xlink:href="#t-3207803"/></g>
<g transform="translate(0,2134)"><use xlink:href="#rect-3207803"/></g>
<g transform="translate(194,2134)"><use xlink:href="#t-3207803"/></g>
<g transform="translate(582,2134)"><use xlink:href="#empty-3207803"/></g>
<g transform="translate(776,2134)"><use xlink:href="#rb-3207803"/></g>
<g transform="translate(873,2134)"><use xlink:href="#rect-3207803"/></g>
<g transform="translate(970,2134)"><use xlink:href="#rect-3207803"/></g>
<g transform="translate(1164,2134)"><use xlink:href="#b-3207803"/></g>
<g transform="translate(1455,2134)"><use xlink:href="#r-3207803"/></g>
<g transform="translate(1552,2134)"><use xlink:href="#lb-3207803"/></g>
<g transform="translate(1746,2134)"><use xlink:href="#r-3207803"/></g>
<g transform="translate(1843,2134)"><use xlink:href="#rect-3207803"/></g>
<g transform="translate(1940,2134)"><use xlink:href="#rect-3207803"/></g>
<g transform="translate(2328,2134)"><use xlink:href="#empty-3207803"/></g>
<g transform="translate(3007,2134)"><use xlink:href="#empty-3207803"/></g>
<g transform="translate(0,2231)"><use xlink:href="#rect-3207803"/></g>
<g transform="translate(291,2231)"><use xlink:href="#empty-3207803"/></g>
<g transform="translate(485,2231)"><use xlink:href="#empty-3207803"/></g>
<g transform="translate(776,2231)"><use xlink:href="#rect-3207803"/></g>
<g transform="translate(873,2231)"><use xlink:href="#rect-3207803"/></g>
<g transform="translate(970,2231)"><use xlink:href="#rect-3207803"/></g>
<g transform="translate(1164,2231)"><use xlink:href="#t-3207803"/></g>
<g transform="translate(1552,2231)"><use xlink:href="#rt-3207803"/></g>
<g transform="translate(1649,2231)"><use xlink:href="#l-3207803"/></g>
<g transform="translate(1940,2231)"><use xlink:href="#rect-3207803"/></g>
<g transform="translate(2037,2231)"><use xlink:href="#l-3207803"/></g>
<g transform="translate(2134,2231)"><use xlink:href="#n_rb-3207803"/></g>
<g transform="translate(2231,2231)"><use xlink:href="#b-3207803"/></g>
<g transform="translate(2619,2231)"><use xlink:href="#n_rb-3207803"/></g>
<g transform="translate(2716,2231)"><use xlink:href="#rb-3207803"/></g>
<g transform="translate(2813,2231)"><use xlink:href="#rect-3207803"/></g>
<g transform="translate(2910,2231)"><use xlink:href="#l-3207803"/></g>
<g transform="translate(3104,2231)"><use xlink:href="#empty-3207803"/></g>
<g transform="translate(0,2328)"><use xlink:href="#t-3207803"/></g>
<g transform="translate(194,2328)"><use xlink:href="#empty-3207803"/></g>
<g transform="translate(582,2328)"><use xlink:href="#empty-3207803"/></g>
<g transform="translate(776,2328)"><use xlink:href="#rect-3207803"/></g>
<g transform="translate(970,2328)"><use xlink:href="#rect-3207803"/></g>
<g transform="translate(1067,2328)"><use xlink:href="#l-3207803"/></g>
<g transform="translate(1261,2328)"><use xlink:href="#r-3207803"/></g>
<g transform="translate(1358,2328)"><use xlink:href="#rect-3207803"/></g>
<g transform="translate(1455,2328)"><use xlink:href="#lb-3207803"/></g>
<g transform="translate(1746,2328)"><use xlink:href="#rb-3207803"/></g>
<g transform="translate(1843,2328)"><use xlink:href="#rect-3207803"/></g>
<g transform="translate(1940,2328)"><use xlink:href="#rect-3207803"/></g>
<g transform="translate(2134,2328)"><use xlink:href="#r-3207803"/></g>
<g transform="translate(2231,2328)"><use xlink:href="#rect-3207803"/></g>
<g transform="translate(2328,2328)"><use xlink:href="#rect-3207803"/></g>
<g transform="translate(2425,2328)"><use xlink:href="#rect-3207803"/></g>
<g transform="translate(2522,2328)"><use xlink:href="#rect-3207803"/></g>
<g transform="translate(2619,2328)"><use xlink:href="#rect-3207803"/></g>
<g transform="translate(2716,2328)"><use xlink:href="#rect-3207803"/></g>
<g transform="translate(3007,2328)"><use xlink:href="#b-3207803"/></g>
<g transform="translate(776,2425)"><use xlink:href="#t-3207803"/></g>
<g transform="translate(873,2425)"><use xlink:href="#n_rb-3207803"/></g>
<g transform="translate(970,2425)"><use xlink:href="#rect-3207803"/></g>
<g transform="translate(1455,2425)"><use xlink:href="#rect-3207803"/></g>
<g transform="translate(1552,2425)"><use xlink:href="#l-3207803"/></g>
<g transform="translate(1746,2425)"><use xlink:href="#t-3207803"/></g>
<g transform="translate(1940,2425)"><use xlink:href="#rt-3207803"/></g>
<g transform="translate(2037,2425)"><use xlink:href="#lb-3207803"/></g>
<g transform="translate(2328,2425)"><use xlink:href="#rect-3207803"/></g>
<g transform="translate(2716,2425)"><use xlink:href="#rect-3207803"/></g>
<g transform="translate(2813,2425)"><use xlink:href="#l-3207803"/></g>
<g transform="translate(3007,2425)"><use xlink:href="#rect-3207803"/></g>
<g transform="translate(3104,2425)"><use xlink:href="#l-3207803"/></g>
<g transform="translate(873,2522)"><use xlink:href="#rb-3207803"/></g>
<g transform="translate(970,2522)"><use xlink:href="#rect-3207803"/></g>
<g transform="translate(1164,2522)"><use xlink:href="#empty-3207803"/></g>
<g transform="translate(1358,2522)"><use xlink:href="#n_rb-3207803"/></g>
<g transform="translate(1455,2522)"><use xlink:href="#rect-3207803"/></g>
<g transform="translate(1552,2522)"><use xlink:href="#n_rb-3207803"/></g>
<g transform="translate(1649,2522)"><use xlink:href="#b-3207803"/></g>
<g transform="translate(1843,2522)"><use xlink:href="#empty-3207803"/></g>
<g transform="translate(2037,2522)"><use xlink:href="#rect-3207803"/></g>
<g transform="translate(2134,2522)"><use xlink:href="#rect-3207803"/></g>
<g transform="translate(2231,2522)"><use xlink:href="#rect-3207803"/></g>
<g transform="translate(2328,2522)"><use xlink:href="#rect-3207803"/></g>
<g transform="translate(2522,2522)"><use xlink:href="#empty-3207803"/></g>
<g transform="translate(2716,2522)"><use xlink:href="#rect-3207803"/></g>
<g transform="translate(2910,2522)"><use xlink:href="#n_rb-3207803"/></g>
<g transform="translate(3007,2522)"><use xlink:href="#rect-3207803"/></g>
<g transform="translate(873,2619)"><use xlink:href="#rt-3207803"/></g>
<g transform="translate(970,2619)"><use xlink:href="#rect-3207803"/></g>
<g transform="translate(1067,2619)"><use xlink:href="#l-3207803"/></g>
<g transform="translate(1358,2619)"><use xlink:href="#r-3207803"/></g>
<g transform="translate(1455,2619)"><use xlink:href="#rect-3207803"/></g>
<g transform="translate(1552,2619)"><use xlink:href="#rect-3207803"/></g>
<g transform="translate(1649,2619)"><use xlink:href="#rect-3207803"/></g>
<g transform="translate(1940,2619)"><use xlink:href="#r-3207803"/></g>
<g transform="translate(2037,2619)"><use xlink:href="#rect-3207803"/></g>
<g transform="translate(2231,2619)"><use xlink:href="#rt-3207803"/></g>
<g transform="translate(2328,2619)"><use xlink:href="#rect-3207803"/></g>
<g transform="translate(2619,2619)"><use xlink:href="#n_rb-3207803"/></g>
<g transform="translate(2716,2619)"><use xlink:href="#rect-3207803"/></g>
<g transform="translate(2813,2619)"><use xlink:href="#rect-3207803"/></g>
<g transform="translate(2910,2619)"><use xlink:href="#rect-3207803"/></g>
<g transform="translate(3007,2619)"><use xlink:href="#rect-3207803"/></g>
<g transform="translate(3104,2619)"><use xlink:href="#lb-3207803"/></g>
<g transform="translate(776,2716)"><use xlink:href="#b-3207803"/></g>
<g transform="translate(1455,2716)"><use xlink:href="#rt-3207803"/></g>
<g transform="translate(1552,2716)"><use xlink:href="#rect-3207803"/></g>
<g transform="translate(1649,2716)"><use xlink:href="#rect-3207803"/></g>
<g transform="translate(1746,2716)"><use xlink:href="#rect-3207803"/></g>
<g transform="translate(1843,2716)"><use xlink:href="#lb-3207803"/></g>
<g transform="translate(2037,2716)"><use xlink:href="#rect-3207803"/></g>
<g transform="translate(2328,2716)"><use xlink:href="#rt-3207803"/></g>
<g transform="translate(2425,2716)"><use xlink:href="#rect-3207803"/></g>
<g transform="translate(2522,2716)"><use xlink:href="#rect-3207803"/></g>
<g transform="translate(2619,2716)"><use xlink:href="#rect-3207803"/></g>
<g transform="translate(2716,2716)"><use xlink:href="#rect-3207803"/></g>
<g transform="translate(2910,2716)"><use xlink:href="#rect-3207803"/></g>
<g transform="translate(3007,2716)"><use xlink:href="#rect-3207803"/></g>
<g transform="translate(3104,2716)"><use xlink:href="#rect-3207803"/></g>
<g transform="translate(776,2813)"><use xlink:href="#rect-3207803"/></g>
<g transform="translate(970,2813)"><use xlink:href="#rb-3207803"/></g>
<g transform="translate(1067,2813)"><use xlink:href="#rect-3207803"/></g>
<g transform="translate(1164,2813)"><use xlink:href="#lb-3207803"/></g>
<g transform="translate(1843,2813)"><use xlink:href="#t-3207803"/></g>
<g transform="translate(2037,2813)"><use xlink:href="#t-3207803"/></g>
<g transform="translate(2425,2813)"><use xlink:href="#rect-3207803"/></g>
<g transform="translate(2716,2813)"><use xlink:href="#rt-3207803"/></g>
<g transform="translate(2813,2813)"><use xlink:href="#rect-3207803"/></g>
<g transform="translate(2910,2813)"><use xlink:href="#rect-3207803"/></g>
<g transform="translate(3104,2813)"><use xlink:href="#t-3207803"/></g>
<g transform="translate(776,2910)"><use xlink:href="#t-3207803"/></g>
<g transform="translate(970,2910)"><use xlink:href="#t-3207803"/></g>
<g transform="translate(1164,2910)"><use xlink:href="#rect-3207803"/></g>
<g transform="translate(1649,2910)"><use xlink:href="#empty-3207803"/></g>
<g transform="translate(2134,2910)"><use xlink:href="#r-3207803"/></g>
<g transform="translate(2231,2910)"><use xlink:href="#l-3207803"/></g>
<g transform="translate(2328,2910)"><use xlink:href="#n_rb-3207803"/></g>
<g transform="translate(2425,2910)"><use xlink:href="#rect-3207803"/></g>
<g transform="translate(2522,2910)"><use xlink:href="#lb-3207803"/></g>
<g transform="translate(2910,2910)"><use xlink:href="#rect-3207803"/></g>
<g transform="translate(1164,3007)"><use xlink:href="#rt-3207803"/></g>
<g transform="translate(1261,3007)"><use xlink:href="#rect-3207803"/></g>
<g transform="translate(1358,3007)"><use xlink:href="#rect-3207803"/></g>
<g transform="translate(1455,3007)"><use xlink:href="#rect-3207803"/></g>
<g transform="translate(1552,3007)"><use xlink:href="#l-3207803"/></g>
<g transform="translate(1746,3007)"><use xlink:href="#b-3207803"/></g>
<g transform="translate(2037,3007)"><use xlink:href="#empty-3207803"/></g>
<g transform="translate(2231,3007)"><use xlink:href="#n_rb-3207803"/></g>
<g transform="translate(2328,3007)"><use xlink:href="#rb-3207803"/></g>
<g transform="translate(2425,3007)"><use xlink:href="#rect-3207803"/></g>
<g transform="translate(2522,3007)"><use xlink:href="#rect-3207803"/></g>
<g transform="translate(2619,3007)"><use xlink:href="#l-3207803"/></g>
<g transform="translate(2813,3007)"><use xlink:href="#r-3207803"/></g>
<g transform="translate(2910,3007)"><use xlink:href="#lt-3207803"/></g>
<g transform="translate(1067,3104)"><use xlink:href="#empty-3207803"/></g>
<g transform="translate(1261,3104)"><use xlink:href="#rt-3207803"/></g>
<g transform="translate(1358,3104)"><use xlink:href="#lt-3207803"/></g>
<g transform="translate(1746,3104)"><use xlink:href="#t-3207803"/></g>
<g transform="translate(2134,3104)"><use xlink:href="#r-3207803"/></g>
<g transform="translate(2231,3104)"><use xlink:href="#rect-3207803"/></g>
<g transform="translate(2328,3104)"><use xlink:href="#rect-3207803"/></g>
<g transform="translate(2425,3104)"><use xlink:href="#rect-3207803"/></g>
<g transform="translate(2522,3104)"><use xlink:href="#lt-3207803"/></g>
<g transform="translate(3007,3104)"><use xlink:href="#empty-3207803"/></g>
<use fill-rule="evenodd" transform="translate(0,0)" xlink:href="#point-3207803"/>
<use fill-rule="evenodd" transform="translate(2496,0)" xlink:href="#point-3207803"/>
<use fill-rule="evenodd" transform="translate(0,2496)" xlink:href="#point-3207803"/>
    </g>
  </svg></g>



        </defs>
        <g clip-path="url(#main-mask-3207803)">
            <rect width="250" height="250" style="fill:#ffffff"/>
            <use x="30" y="30" xlink:href="#qr-3207803" transform="scale(1)" xmlns="http://www.w3.org/2000/svg" xmlns:xlink="http://www.w3.org/1999/xlink"/>
        </g>
      </svg>
